<svg width="17" height="21" viewBox="0 0 17 21" fill="none" xmlns="http://www.w3.org/2000/svg">
<path d="M14.0611 19.462C13.0055 20.4852 11.853 20.3236 10.7437 19.839C9.56965 19.3435 8.49257 19.322 7.25393 19.839C5.70294 20.5067 4.88436 20.3129 3.95807 19.462C-1.29806 14.0443 -0.522565 5.79388 5.44444 5.4923C6.8985 5.56769 7.91095 6.28934 8.76184 6.35396C10.0328 6.09546 11.2499 5.35228 12.607 5.44922C14.2334 5.57846 15.4613 6.22471 16.2691 7.38795C12.9086 9.40209 13.7056 13.8289 16.7861 15.0675C16.1721 16.6831 15.3751 18.288 14.0503 19.4728L14.0611 19.462ZM8.65413 5.42767C8.49257 3.02579 10.4421 1.04397 12.6824 0.850098C12.9948 3.62896 10.162 5.69694 8.65413 5.42767Z" fill="#828282"/>
</svg>
