<svg width="20" height="21" viewBox="0 0 20 21" fill="none" xmlns="http://www.w3.org/2000/svg">
<path d="M19.5511 8.64626H18.7702V8.60603H10.0448V12.484H15.5238C14.7245 14.7415 12.5766 16.362 10.0448 16.362C6.83236 16.362 4.22782 13.7574 4.22782 10.545C4.22782 7.3326 6.83236 4.72806 10.0448 4.72806C11.5276 4.72806 12.8766 5.28746 13.9038 6.2012L16.646 3.459C14.9145 1.84528 12.5984 0.850098 10.0448 0.850098C4.69075 0.850098 0.349854 5.19099 0.349854 10.545C0.349854 15.899 4.69075 20.2399 10.0448 20.2399C15.3988 20.2399 19.7397 15.899 19.7397 10.545C19.7397 9.89497 19.6728 9.26043 19.5511 8.64626Z" fill="#FFC107"/>
<path d="M10.0447 20.24C12.5489 20.24 14.8243 19.2817 16.5447 17.7232L13.5441 15.1841C12.538 15.9492 11.3087 16.363 10.0447 16.362C7.52307 16.362 5.38195 14.7541 4.57533 12.5103L1.41382 14.9461C3.01833 18.0858 6.27679 20.24 10.0447 20.24Z" fill="#4CAF50"/>
<path d="M19.551 8.64619H18.7701V8.60596H10.0447V12.4839H15.5238C15.1414 13.5583 14.4526 14.4972 13.5426 15.1844L13.5441 15.1835L16.5446 17.7226C16.3323 17.9155 19.7396 15.3924 19.7396 10.5449C19.7396 9.8949 19.6727 9.26036 19.551 8.64619Z" fill="#1976D2"/>
<path d="M1.46753 6.03251L4.65279 8.3685C5.51467 6.23465 7.60198 4.72806 10.0446 4.72806C11.5275 4.72806 12.8765 5.28746 13.9037 6.2012L16.6459 3.459C14.9144 1.84528 12.5983 0.850098 10.0446 0.850098C6.3208 0.850098 3.09143 2.95244 1.46753 6.03251Z" fill="#FF3D00"/>
</svg>
