<svg width="120" height="120" viewBox="0 0 120 120" fill="none" xmlns="http://www.w3.org/2000/svg">
<g clip-path="url(#clip0_1_3004)">
<mask id="mask0_1_3004" style="mask-type:luminance" maskUnits="userSpaceOnUse" x="0" y="23" width="120" height="74">
<mask id="mask1_1_3004" style="mask-type:luminance" maskUnits="userSpaceOnUse" x="0" y="0" width="120" height="60">
<path d="M119.925 0H0.0749512V59.9251H119.925V0Z" fill="white"/>
</mask>
<g mask="url(#mask1_1_3004)">
<path d="M114.931 82.3969C114.931 52.0593 90.3375 27.4656 59.9999 27.4656C29.6622 27.4656 5.0686 52.0593 5.0686 82.3969H114.931Z" stroke="white" stroke-width="8.24657" stroke-linecap="round" stroke-linejoin="round"/>
</g>
<mask id="mask2_1_3004" style="mask-type:luminance" maskUnits="userSpaceOnUse" x="0" y="59" width="120" height="61">
<path d="M0.074852 119.85L119.925 119.85L119.925 59.925L0.074852 59.925L0.074852 119.85Z" fill="white"/>
</mask>
<g mask="url(#mask2_1_3004)">
<path d="M5.06847 37.4532C5.06847 67.7908 29.6622 92.3845 59.9998 92.3845C90.3375 92.3845 114.931 67.7908 114.931 37.4532L5.06847 37.4532Z" stroke="white" stroke-width="8.24657" stroke-linecap="round" stroke-linejoin="round"/>
</g>
</mask>
<g mask="url(#mask0_1_3004)">
<path d="M119.925 0H0.0749512V119.85H119.925V0Z" fill="#FA6207"/>
</g>
<path fill-rule="evenodd" clip-rule="evenodd" d="M74.6945 59.1656C74.6999 59.1655 74.7052 59.1654 74.7106 59.1653L74.7072 59.1686L74.6945 59.1656ZM48.7351 69.9472H45.4416C43.9882 69.9472 42.5915 69.4128 41.5624 68.4007C40.5334 67.3853 39.9553 66.0125 39.9553 64.5763C39.9556 63.8635 40.0978 63.158 40.3737 62.5008C40.6497 61.8436 41.0538 61.2479 41.5624 60.7485C42.2444 60.0792 43.0884 59.5981 44.0119 59.3522C44.9354 59.1063 45.9069 59.104 46.8315 59.3456C46.4974 58.5574 46.3237 57.7156 46.3203 56.8606C46.3898 54.9875 47.1911 53.2163 48.5523 51.9272C49.7173 50.8227 51.2111 50.1285 52.8067 49.95C54.4024 49.7716 56.0127 50.1186 57.3931 50.9385C58.5231 51.6073 59.4503 52.5701 60.0761 53.7242C60.6976 52.5752 61.6231 51.6099 62.7591 50.9385C63.8959 50.2641 65.1927 49.9066 66.5146 49.9031C68.4191 49.8813 70.2582 50.5971 71.6467 51.9005C73.0238 53.1919 73.8355 54.9743 73.9054 56.8606C73.8987 57.7156 73.7249 58.5574 73.3908 59.3456C73.8167 59.2334 74.2523 59.1767 74.6945 59.1656L74.5636 59.1352C76.0138 59.1329 77.4069 59.7003 78.4427 60.7151C78.9501 61.2145 79.353 61.8099 79.628 62.4665C79.903 63.123 80.0446 63.8277 80.0446 64.5395C80.0446 65.2514 79.903 65.956 79.628 66.6126C79.353 67.2692 78.9501 67.8645 78.4427 68.364C77.4136 69.3794 76.017 69.9472 74.5636 69.9472H62.9131C63.1901 69.1635 63.3408 68.3202 63.3408 67.4417C63.3408 63.2903 59.9755 59.925 55.8241 59.925C51.6727 59.925 48.3074 63.2903 48.3074 67.4417C48.3074 68.3202 48.4581 69.1635 48.7351 69.9472Z" fill="#FA6207"/>
</g>
<defs>
<clipPath id="clip0_1_3004">
<rect width="119.85" height="119.85" fill="white" transform="translate(0.0749512)"/>
</clipPath>
</defs>
</svg>
